<?xml version="1.0" encoding="utf-8"?>
<!-- Generator: Adobe Illustrator 24.3.0, SVG Export Plug-In . SVG Version: 6.00 Build 0)  -->
<svg version="1.1" id="Layer_1" xmlns="http://www.w3.org/2000/svg" xmlns:xlink="http://www.w3.org/1999/xlink" x="0px" y="0px"
	 viewBox="0 0 856.6 468" style="enable-background:new 0 0 856.6 468;" xml:space="preserve">
<style type="text/css">
	.st0{opacity:0.95;}
	.st1{fill:#181B16;}
	.st2{fill:#1A1A1A;}
</style>
<g class="st0">
	<path class="st1" d="M81.6,324.7c0.1,1.3,0.1,2.5,0.1,3.8c0,6.5-1.2,12.3-3.6,17.5c-2.9,6.2-6.9,11.2-12.1,15.2
		c-8.8,6.7-19.4,10.2-32,10.3h-4.7c-2.3,0-4.4,0-6.4-0.1h-6.9c-3.2,0-5.7-0.1-7.4-0.2H7.3c-1.6,0-3.6,0.1-6.1,0.4
		c-0.8,0-1.2-0.4-1.2-1.3c0-1,1-1.8,2.9-2.5c2-0.7,2.9-2.3,2.9-4.9v-65.8c0-2.5-1-4.1-2.9-4.8c-2-0.7-2.9-1.5-2.9-2.5
		c0-0.8,0.4-1.2,1.2-1.2c1.6,0,3.3,0.1,5,0.1c1.6,0,3.3,0,5-0.1c3.4-0.1,6.6-0.2,9.8-0.3h3.5c6,0,12,0.2,18,0.5
		c7.1,0.4,13.6,1.9,19.3,4.3c5.4,2.4,9.9,6,13.4,11C78.9,309,81,315.9,81.6,324.7z M17.1,294.1v71.1c4.8,0.9,9.5,1.3,13.9,1.3
		c1.7,0,3.4-0.1,5-0.2c6-0.5,11.3-1.9,15.9-4.3c5.5-2.9,9.8-7.3,13-13.2c2.9-5.5,4.3-12.4,4.3-20.9V326c-0.2-6.3-1.3-11.6-3.4-15.9
		c-2.1-4.3-4.9-7.7-8.3-10.3c-5-3.8-11.2-6-18.3-6.6c-2.5-0.2-4.9-0.3-7.4-0.3C27,292.9,22.1,293.3,17.1,294.1z"/>
	<path class="st1" d="M127,297.4v65c0,2.6,1,4.2,2.9,4.9c2,0.7,2.9,1.5,2.9,2.5c0,0.8-0.4,1.2-1.2,1.2h-19.9c-0.8,0-1.2-0.4-1.2-1.2
		c0-1,1-1.8,2.9-2.5c2-0.7,2.9-2.3,2.9-4.8v-65.1c0-2.5-1-4.2-2.9-4.8c-2-0.7-2.9-1.5-2.9-2.5c0-0.8,0.4-1.2,1.2-1.2h19.8
		c0.8,0,1.2,0.4,1.2,1.2c0,1-1,1.9-2.9,2.5C128,293.2,127,294.8,127,297.4z"/>
	<path class="st1" d="M179.9,297l24.8,63.6l26.6-54.5c0.5-1,0.8-1.9,0.8-2.8c0-0.7-0.2-1.3-0.5-1.9c-0.7-1.2-1.9-2.7-3.5-4.6
		l-2.9-3.3l7.3-5.5c0.3-0.3,0.6-0.4,1-0.4c0.4,0,0.8,0.2,1.3,0.6l4.8,4.9c1,1.1,1.5,2.3,1.5,3.9c0,0.9-0.2,1.8-0.5,2.8
		c-0.9,2.8-2.3,6-4.2,9.8l-28.7,59.5c-0.3,0.7-0.5,1.2-0.8,1.5c-0.3,0.2-0.6,0.4-0.9,0.4h-8.8c-0.4,0-0.7-0.2-0.9-0.5
		c-0.1-0.1-0.3-0.6-0.6-1.3c-0.3-0.8-0.5-1.3-0.6-1.7L172.9,306c-1.6-4.1-2.7-7-3.4-8.7c-0.7-1.4-1.9-2.8-3.5-3.9
		c-0.9-0.6-1.8-1.1-2.7-1.4c-0.9-0.4-1.6-0.8-2.1-1.1c-0.4-0.2-0.6-0.5-0.7-0.8c-0.1-0.2-0.2-0.3-0.2-0.5c0-0.1,0-0.2,0.1-0.4
		c0.2-0.2,0.4-0.4,0.7-0.4H181c0.4,0,0.7,0.1,1.1,0.4c0.4,0.3,0.6,0.6,0.7,0.9c0,0.1,0.1,0.2,0.1,0.3c0,0.4-0.2,0.8-0.6,1.2
		c-0.4,0.4-0.8,0.7-1.3,1.1c-0.5,0.4-0.8,0.9-1.1,1.5c-0.2,0.4-0.2,0.8-0.2,1.2C179.5,295.9,179.7,296.4,179.9,297z"/>
	<path class="st1" d="M284.2,365.5h25c3.6,0,6.7-1.4,9.2-4.2c2.5-2.8,4.4-5,5.7-6.5c0.7-0.9,1.2-1.3,1.6-1.3c0.8,0,1.2,0.4,1.2,1.2
		c0,0.5,0,0.9-0.1,1.2l-4.3,15.1h-53.8c-0.7,0-1.1-0.4-1.1-1.2c0-1,1-1.8,2.9-2.5c2-0.7,2.9-2.3,2.9-4.8v-65.1c0-2.5-1-4.2-2.9-4.8
		c-2-0.7-2.9-1.5-2.9-2.5c0-0.8,0.4-1.2,1.2-1.2h54.4v15.1c0,0.8-0.4,1.2-1.2,1.2c-0.4,0-1.1-0.8-2.2-2.3c-2-2.7-3.6-4.8-5.1-6.3
		c-1.4-1.5-3.3-2.2-5.7-2.2h-25V326h13.4c2.5,0,4.1-1,4.9-3c0.8-2,1.7-3,2.7-3c0.8,0,1.2,0.4,1.2,1.2v14.9c0,0.8-0.4,1.2-1.2,1.2
		c-1,0-2-1-2.9-3c-0.9-2-2.6-3-5.1-3h-13.1V365.5z"/>
	<path class="st1" d="M420.9,366.8c1.1,0.9,2.5,1.4,4.3,1.6c1.1,0.1,1.6,0.5,1.6,1.2v0.2c-0.1,0.8-0.5,1.2-1.2,1.2H410
		c-0.4,0-1.7-1.5-4-4.6c-2.3-3-5-6.7-8-10.9s-6.2-8.5-9.4-12.9c-3.2-4.4-5.9-8-8-10.7h-9.4v30.5c0,2.5,1,4.2,2.9,4.8
		c2,0.7,2.9,1.5,2.9,2.5c0,0.8-0.4,1.2-1.2,1.2H356c-0.8,0-1.2-0.4-1.2-1.2c0-1,1-1.8,2.9-2.5c2-0.7,2.9-2.3,2.9-4.8v-65.1
		c0-2.5-1-4.1-2.9-4.8c-2-0.7-2.9-1.6-2.9-2.6c0-0.8,0.4-1.2,1.2-1.2h34.6c4,0,8.2,0.7,12.6,2.1c4.4,1.4,7.8,4.2,10.1,8.3
		c1.9,3.3,2.8,7.3,2.8,12c-0.1,4.4-1.3,8.4-3.8,11.9c-2,2.8-4.7,4.9-8.1,6.4c-3.5,1.5-6.8,2.3-9.9,2.5L420.9,366.8z M371.2,293.6
		v34.2h13.6c2.7,0,5.4-0.4,8.2-1.2c2.8-0.8,5.2-2.2,7.1-4.2c3.1-3,4.7-7,4.7-12c0-4.8-1.6-8.8-4.9-12c-3.5-3.3-8.1-5-14-5H371.2z"/>
	<path class="st1" d="M473.4,367.8c3.2-0.2,6.2-1,9.1-2.5c2.9-1.5,5.2-3.6,7-6.4c1.8-2.9,2.8-6.5,2.8-10.6v-0.6
		c-0.1-4.4-1.8-7.8-5-10.1c-1.5-1.1-3.3-2-5.4-2.6c-4.1-1.1-8.4-1.9-12.7-2.4c-4.3-0.5-8.4-1.6-12.3-3.5c-3.5-1.6-6.1-4.1-7.8-7.2
		c-1.7-3.2-2.6-6.7-2.6-10.4c0-7.3,2.6-13.3,7.7-18c5.2-4.8,11.8-7.3,19.8-7.3h1.8c8.7,0.4,16.1,2.6,22.2,6.5l-1.4,12.3
		c-0.1,0.7-0.4,1.1-1.1,1.1h-0.2c-0.5,0-1-0.6-1.5-1.6c-1.7-3.5-4.1-6.5-7.3-9c-3.2-2.5-6.7-3.8-10.4-4h-0.9c-3.6,0-6.8,0.6-9.6,1.9
		c-1.8,0.9-3.3,2-4.4,3.1c-1,1.1-1.9,2.4-2.7,4c-0.6,1.3-1.1,2.8-1.5,4.5c-0.3,1.3-0.4,2.4-0.4,3.6c0,1.5,0.2,2.9,0.7,4.2
		c0.8,2.6,2.2,4.6,4.2,6c1.5,1.1,3.2,1.9,5,2.3c1,0.3,2.2,0.5,3.6,0.8c1.4,0.3,2.9,0.5,4.4,0.7c2.2,0.4,4.6,0.7,7.1,1.1
		c2.5,0.4,4.9,0.9,7.2,1.6c3.9,1.3,6.8,2.9,8.7,5c1.4,1.6,2.6,3.4,3.5,5.3c1.1,2.6,1.6,5.4,1.6,8.5c0,8.4-3.4,15.3-10.2,20.9
		c-3.5,2.9-7.4,5-11.7,6.4c-3.4,1.1-7.1,1.7-11,1.9c-0.9,0-1.7,0.1-2.5,0.1c-5.4,0-10.6-0.8-15.6-2.3l-5.6-15.5
		c-0.1-0.2-0.1-0.4-0.1-0.6c0-0.4,0.1-0.8,0.4-1.2c0.3-0.5,0.7-0.8,1.2-0.8c0.5,0.1,1,0.7,1.5,1.7c2.5,5.4,5.6,9.1,9.4,10.9
		c3.1,1.5,7.1,2.3,11.9,2.3C471.3,367.9,472.3,367.9,473.4,367.8z"/>
	<path class="st1" d="M545.6,297.4v65c0,2.6,1,4.2,2.9,4.9c2,0.7,2.9,1.5,2.9,2.5c0,0.8-0.4,1.2-1.2,1.2h-19.9
		c-0.8,0-1.2-0.4-1.2-1.2c0-1,1-1.8,2.9-2.5c2-0.7,2.9-2.3,2.9-4.8v-65.1c0-2.5-1-4.2-2.9-4.8c-2-0.7-2.9-1.5-2.9-2.5
		c0-0.8,0.4-1.2,1.2-1.2h19.8c0.8,0,1.2,0.4,1.2,1.2c0,1-1,1.9-2.9,2.5C546.5,293.2,545.6,294.8,545.6,297.4z"/>
	<path class="st1" d="M622.9,286.3h0.6c12.6,0,23.3,3.9,31.9,11.6c8.1,7.2,12.1,16.8,12.1,28.6c0,1.1,0,2.1-0.1,3.2
		c-0.8,13.4-5.5,23.9-14,31.3c-8.5,7.4-18.7,11.4-30.7,12.1c-0.9,0-1.8,0.1-2.7,0.1c-10.9,0-20.5-3.8-28.8-11.2
		c-8.6-7.7-12.9-17.7-12.9-30.1c0-0.7,0-1.4,0.1-2.1c0.5-13.3,4.8-23.8,12.9-31.6S610,286.5,622.9,286.3z M622.9,291.5
		c-12,0-20.4,3.8-25.1,11.3c-4.8,7.5-7.1,16.6-7.1,27.1c0,10.6,3,19.6,9,27.1c6,7.5,13.7,11.3,23.3,11.3h0.3c9.3,0,17-4,23-12
		c5.9-7.9,8.9-16.6,8.9-26.1v-0.4c-0.1-9.7-2.6-18.6-7.6-26.5C642.5,295.4,634.3,291.5,622.9,291.5z"/>
	<path class="st1" d="M765.1,359.1v-61.8c0-2.5-1-4.1-2.9-4.8s-2.9-1.6-2.9-2.6c0-0.8,0.4-1.2,1.2-1.2h14.9c0.8,0,1.2,0.4,1.2,1.2
		c0,1-1,1.9-2.9,2.6c-2,0.7-2.9,2.3-2.9,4.8l-0.1,76.2l-10.4-2.5l-56.1-69.7v61.1c0,2.5,1,4.2,2.9,4.8c2,0.7,2.9,1.5,2.9,2.5
		c0,0.8-0.4,1.2-1.2,1.2h-14.9c-0.8,0-1.2-0.4-1.2-1.2c0-1,1-1.8,2.9-2.5c2-0.7,2.9-2.3,2.9-4.8v-65.1c0-2.5-1-4.1-2.9-4.8
		c-2-0.7-2.9-1.6-2.9-2.6c0-0.8,0.4-1.2,1.2-1.2H709L765.1,359.1z"/>
	<path class="st1" d="M827.5,367.8c3.2-0.2,6.2-1,9.1-2.5c2.9-1.5,5.2-3.6,7-6.4c1.8-2.9,2.8-6.5,2.8-10.6v-0.6
		c-0.1-4.4-1.8-7.8-5-10.1c-1.5-1.1-3.3-2-5.4-2.6c-4.1-1.1-8.4-1.9-12.7-2.4c-4.3-0.5-8.4-1.6-12.3-3.5c-3.5-1.6-6.1-4.1-7.8-7.2
		c-1.7-3.2-2.6-6.7-2.6-10.4c0-7.3,2.6-13.3,7.7-18c5.2-4.8,11.8-7.3,19.8-7.3h1.8c8.7,0.4,16.1,2.6,22.2,6.5l-1.4,12.3
		c-0.1,0.7-0.4,1.1-1.1,1.1h-0.2c-0.5,0-1-0.6-1.5-1.6c-1.7-3.5-4.1-6.5-7.3-9c-3.2-2.5-6.7-3.8-10.4-4h-0.9c-3.6,0-6.8,0.6-9.6,1.9
		c-1.8,0.9-3.3,2-4.4,3.1c-1,1.1-1.9,2.4-2.7,4c-0.6,1.3-1.1,2.8-1.5,4.5c-0.3,1.3-0.4,2.4-0.4,3.6c0,1.5,0.2,2.9,0.7,4.2
		c0.8,2.6,2.2,4.6,4.2,6c1.5,1.1,3.2,1.9,5,2.3c1,0.3,2.2,0.5,3.6,0.8c1.4,0.3,2.9,0.5,4.4,0.7c2.2,0.4,4.6,0.7,7.1,1.1
		c2.5,0.4,4.9,0.9,7.2,1.6c3.9,1.3,6.8,2.9,8.7,5c1.4,1.6,2.6,3.4,3.5,5.3c1.1,2.6,1.6,5.4,1.6,8.5c0,8.4-3.4,15.3-10.2,20.9
		c-3.5,2.9-7.4,5-11.7,6.4c-3.4,1.1-7.1,1.7-11,1.9c-0.9,0-1.7,0.1-2.5,0.1c-5.4,0-10.6-0.8-15.6-2.3l-5.6-15.5
		c-0.1-0.2-0.1-0.4-0.1-0.6c0-0.4,0.1-0.8,0.4-1.2c0.3-0.5,0.7-0.8,1.2-0.8c0.5,0.1,1,0.7,1.5,1.7c2.5,5.4,5.6,9.1,9.4,10.9
		c3.1,1.5,7.1,2.3,11.9,2.3C825.4,367.9,826.4,367.9,827.5,367.8z"/>
</g>
<g class="st0">
	<path class="st1" d="M156.5,433.9l-11.4,33.6h-2.6l-10.4-30.1l-10.5,30.1H119l-11.4-33.6h2.6l10.2,30.2l10.5-30.2h2.4l10.5,30.3
		l10.3-30.3H156.5z"/>
	<path class="st1" d="M192.7,465.3v2.2h-23.2v-33.6H192v2.2h-20v13.2h17.9v2.2H172v13.8H192.7z"/>
	<path class="st1" d="M207.6,433.9h2.4v31.4h19.3v2.2h-21.8V433.9z"/>
	<path class="st1" d="M241.7,433.9h2.4v31.4h19.3v2.2h-21.8V433.9z"/>
	<path class="st1" d="M303.1,433.9v33.6h-2l-22.9-29.2v29.2h-2.4v-33.6h2.1l22.8,29.2v-29.2H303.1z"/>
	<path class="st1" d="M344,465.3v2.2h-23.2v-33.6h22.5v2.2h-20v13.2h17.9v2.2h-17.9v13.8H344z"/>
	<path class="st1" d="M355.6,463.2l1.1-1.8c2.3,2.4,6.6,4.2,11.1,4.2c6.7,0,9.7-2.9,9.7-6.6c0-10.1-21-4-21-16.4
		c0-4.8,3.6-8.9,11.9-8.9c3.7,0,7.5,1.2,10.1,3l-0.9,2c-2.8-1.9-6.2-2.8-9.2-2.8c-6.5,0-9.5,3-9.5,6.7c0,10.1,21,4.1,21,16.3
		c0,4.8-3.8,8.9-12.1,8.9C362.8,467.7,358,465.9,355.6,463.2z"/>
	<path class="st1" d="M390.8,463.2l1.1-1.8c2.3,2.4,6.6,4.2,11.1,4.2c6.7,0,9.7-2.9,9.7-6.6c0-10.1-21-4-21-16.4
		c0-4.8,3.6-8.9,11.9-8.9c3.7,0,7.5,1.2,10.1,3l-0.9,2c-2.8-1.9-6.2-2.8-9.2-2.8c-6.5,0-9.5,3-9.5,6.7c0,10.1,21,4.1,21,16.3
		c0,4.8-3.8,8.9-12.1,8.9C398,467.7,393.2,465.9,390.8,463.2z"/>
	<path class="st1" d="M471.4,468l-4.8-5.1c-2.7,3.2-6.6,4.8-11.2,4.8c-6.4,0-10.9-3.4-10.9-8.4c0-3.9,2.3-6.8,8.7-10.6l0-0.1
		c-3.4-3.6-4.3-5.5-4.3-8.1c0-4.1,3.1-6.9,8-6.9c4.5,0,7.4,2.4,7.4,6.4c0,3.3-2,5.6-7.7,9l9.9,10.5c1.1-1.9,1.9-4.1,2.4-6.8l2,0.6
		c-0.6,3.1-1.6,5.7-2.9,7.7l5,5.3L471.4,468z M465.1,461.4l-10.6-11.2c-6,3.5-7.7,5.8-7.7,9c0,3.9,3.6,6.6,8.7,6.6
		C459.4,465.7,462.7,464.3,465.1,461.4z M455,447.6c5.3-3.1,7-4.8,7-7.5c0-2.7-1.9-4.6-5.3-4.6c-3.6,0-5.7,2-5.7,5
		C451,442.7,451.8,444.2,455,447.6z"/>
	<path class="st1" d="M535.3,467.5l0-28.8L521.2,463H520l-14.1-24.2v28.7h-2.4v-33.6h2.1l15,26l15-26h2l0,33.6H535.3z"/>
	<path class="st1" d="M578.6,465.3v2.2h-23.2v-33.6h22.5v2.2h-20v13.2h17.9v2.2h-17.9v13.8H578.6z"/>
	<path class="st1" d="M593.5,433.9h13.3c10.7,0,17.9,7,17.9,16.8s-7.2,16.8-17.9,16.8h-13.3V433.9z M606.6,465.3
		c9.5,0,15.6-6,15.6-14.6c0-8.5-6.1-14.6-15.6-14.6H596v29.2H606.6z"/>
	<path class="st1" d="M654.1,463.2l1.1-1.8c2.3,2.4,6.6,4.2,11.1,4.2c6.7,0,9.7-2.9,9.7-6.6c0-10.1-21-4-21-16.4
		c0-4.8,3.6-8.9,11.9-8.9c3.7,0,7.5,1.2,10.1,3l-0.9,2c-2.8-1.9-6.2-2.8-9.2-2.8c-6.5,0-9.5,3-9.5,6.7c0,10.1,21,4.1,21,16.3
		c0,4.8-3.8,8.9-12.1,8.9C661.4,467.7,656.6,465.9,654.1,463.2z"/>
	<path class="st1" d="M718.3,445.2c0,7.1-5.1,11.3-13.5,11.3h-9.6v11h-2.4v-33.6h12C713.3,433.9,718.3,438.1,718.3,445.2z
		 M715.8,445.2c0-5.8-3.8-9.1-11-9.1h-9.6v18.2h9.6C712,454.3,715.8,451,715.8,445.2z"/>
	<path class="st1" d="M751.7,458.1h-19.5l-4.3,9.5h-2.6l15.5-33.6h2.4l15.5,33.6H756L751.7,458.1z M750.8,456l-8.8-19.4l-8.8,19.4
		H750.8z"/>
</g>
<g>
	<path class="st2" d="M425.4,19.1c0,3.6-2.9,6.4-6.4,6.4c-3.6,0-6.4-2.9-6.4-6.4c0-3.6,2.9-6.4,6.4-6.4
		C422.5,12.7,425.4,15.5,425.4,19.1"/>
	<path class="st2" d="M407.3,19.1c0,3.6-2.9,6.4-6.4,6.4c-3.6,0-6.4-2.9-6.4-6.4c0-3.6,2.9-6.4,6.4-6.4
		C404.4,12.7,407.3,15.5,407.3,19.1"/>
	<path class="st2" d="M389.3,19.1c0,3.6-2.9,6.4-6.4,6.4c-3.6,0-6.4-2.9-6.4-6.4c0-3.6,2.9-6.4,6.4-6.4
		C386.4,12.7,389.3,15.5,389.3,19.1"/>
	<path class="st2" d="M425.5,59.3h18.2c0,0-2.6-6.6-16.6-19.2c-7-6.3-18.1-7-18.1-7c-36.5,0-66.1,29.6-66.1,66.1
		c0,36.5,29.6,66.1,66.1,66.1l13.2,0.2v-52.2c-13.7-1.8-23.9-13.1-23.9-26.9C398.4,71.4,410.5,59.3,425.5,59.3z M415.2,43.1
		c2.2,0,4,1.8,4,4c0,2.2-1.8,4-4,4s-4-1.8-4-4C411.3,44.8,413,43.1,415.2,43.1z"/>
	<polygon class="st2" points="404.3,203 457.3,203 430.5,175.8 	"/>
	<path class="st2" d="M511.2,7.6c0,0-17.7-15.5-40.1-2.3c0,0-13.2,9.9-14.6,36.7c0,0,0.3,25.5,2,38.1c0,0,7.3,48.7-24.5,86.4
		c0,0,38.7,7,66.9-31.8c0,0,25.2-31.8,26.2-78.1C527.1,56.6,529.1,21.5,511.2,7.6z M492.5,24.4c6.2-7.6,8,2.1,8,2.1
		c-3.3,25.2-15.6,36.3-15.6,36.3C485.5,40,492.5,24.4,492.5,24.4z M469.2,39.4c4-8.9,8.3,0,8.3,0c3.3,25.2-5.6,39.1-5.6,39.1
		C466.5,56.3,469.2,39.4,469.2,39.4z M488.8,73.9c7.6-6.2,7.4,3.7,7.4,3.7c-8.3,24-22.5,32.4-22.5,32.4
		C478.9,87.8,488.8,73.9,488.8,73.9z M503.1,107c-13.2,21.7-28.8,26.9-28.8,26.9c9.7-20.6,22.4-32.1,22.4-32.1
		C505.3,97.3,503.1,107,503.1,107z"/>
</g>
</svg>
